HIERARCHY
ROOT Hips
{
	OFFSET 56.877701 -32.693596 43.373703
	CHANNELS 6 Xposition Yposition Zposition Zrotation Xrotation Yrotation
	JOINT Chest
	{
		OFFSET -0.779999 1.005800 5.403099
		CHANNELS 6 Xposition Yposition Zposition Zrotation Xrotation Yrotation
		JOINT Chest2
		{
			OFFSET 0.000000 0.000000 4.236801
			CHANNELS 6 Xposition Yposition Zposition Zrotation Xrotation Yrotation
			JOINT Neck
			{
				OFFSET 0.000000 0.000000 9.874401
				CHANNELS 6 Xposition Yposition Zposition Zrotation Xrotation Yrotation
				JOINT Head
				{
					OFFSET 0.000000 0.000002 2.173893
					CHANNELS 6 Xposition Yposition Zposition Zrotation Xrotation Yrotation
					End Site
					{
						OFFSET 0.000000 0.000000 6.508102
					}
				}
			}
			JOINT LeftCollar
			{
				OFFSET 2.681599 -0.377600 5.432499
				CHANNELS 6 Xposition Yposition Zposition Zrotation Xrotation Yrotation
				JOINT LeftShoulder
				{
					OFFSET 5.161499 0.000000 0.000000
					CHANNELS 6 Xposition Yposition Zposition Zrotation Xrotation Yrotation
					JOINT LeftElbow
					{
						OFFSET 0.000000 0.000000 -10.869099
						CHANNELS 6 Xposition Yposition Zposition Zrotation Xrotation Yrotation
						JOINT LeftWrist
						{
							OFFSET 0.000000 0.000000 -13.344799
							CHANNELS 6 Xposition Yposition Zposition Zrotation Xrotation Yrotation
							End Site
							{
								OFFSET 0.000000 0.000000 -2.173901
							}
						}
					}
				}
			}
			JOINT RightCollar
			{
				OFFSET -2.381901 -1.419600 6.136600
				CHANNELS 6 Xposition Yposition Zposition Zrotation Xrotation Yrotation
				JOINT RightShoulder
				{
					OFFSET -4.550499 0.000000 0.000000
					CHANNELS 6 Xposition Yposition Zposition Zrotation Xrotation Yrotation
					JOINT RightElbow
					{
						OFFSET 0.000000 0.000000 -11.106499
						CHANNELS 6 Xposition Yposition Zposition Zrotation Xrotation Yrotation
						JOINT RightWrist
						{
							OFFSET 0.000000 0.000000 -12.874298
							CHANNELS 6 Xposition Yposition Zposition Zrotation Xrotation Yrotation
							End Site
							{
								OFFSET 0.000000 0.000000 -2.173901
							}
						}
					}
				}
			}
		}
	}
	JOINT LeftHip
	{
		OFFSET 2.431900 0.469601 -2.489399
		CHANNELS 6 Xposition Yposition Zposition Zrotation Xrotation Yrotation
		JOINT LeftKnee
		{
			OFFSET 0.000000 -0.000004 -18.200201
			CHANNELS 6 Xposition Yposition Zposition Zrotation Xrotation Yrotation
			JOINT LeftAnkle
			{
				OFFSET 0.000000 0.000000 -16.279900
				CHANNELS 6 Xposition Yposition Zposition Zrotation Xrotation Yrotation
				End Site
				{
					OFFSET 0.000000 -8.394100 0.000000
				}
			}
		}
	}
	JOINT RightHip
	{
		OFFSET -1.987999 -0.073502 -2.713001
		CHANNELS 6 Xposition Yposition Zposition Zrotation Xrotation Yrotation
		JOINT RightKnee
		{
			OFFSET 0.000000 -0.000004 -19.547802
			CHANNELS 6 Xposition Yposition Zposition Zrotation Xrotation Yrotation
			JOINT RightAnkle
			{
				OFFSET 0.000000 0.000000 -14.881199
				CHANNELS 6 Xposition Yposition Zposition Zrotation Xrotation Yrotation
				End Site
				{
					OFFSET 0.000000 -7.922699 0.000000
				}
			}
		}
	}
}
MOTION
Frames: 6
Frame Time: 0.041667
82.592804 -22.553097 44.207203 4866.172973 10.086172 0.674442 -0.779997 1.005794 5.403087 -5.761855 -9.290237 -7.613319 0.000010 -0.000003 4.236797 3.392128 -2.621608 -1.202800 -0.000004 0.000004 9.874393 -58.144260 -9.277087 -17.548697 -0.000008 0.000007 2.173892 -5.925286 -0.211500 -6.676047 2.681600 -0.377597 5.432499 -11.491374 12.495428 -52.957517 5.161510 0.000006 0.000005 -212.365717 -168.787867 -318.048961 0.000004 -0.000008 -10.869108 77.372806 -15.929299 7.979158 -0.000007 -0.000007 -13.344797 -37.603070 -11.638568 -30.295577 -2.381897 -1.419595 6.136595 5.917467 9.100949 -11.823445 -4.550513 -0.000001 0.000009 -1199.718466 -495.953587 -385.465551 -0.000002 0.000004 -11.106519 723.022187 1.342067 720.637468 0.000004 0.000010 -12.874309 -366.408449 4.978645 -13.958004 2.431900 0.469596 -2.489397 15.215189 -17.472590 13.399893 0.000010 0.000000 -18.200203 -17.341895 37.278421 7.002180 0.000007 -0.000005 -16.279892 -24.712145 36.969591 -11.030492 -1.987998 -0.073506 -2.712999 -81.855924 -32.609686 -41.998048 -0.000005 -0.000003 -19.547802 -1799.223949 56.675223 30.899827 -0.000008 -0.000001 -14.881196 2227.359659 47.921355 -362.618431
82.647804 -22.441399 44.215305 4870.472605 10.817190 0.725731 -0.779989 1.005800 5.403102 -10.293299 -10.801977 -7.606111 0.000010 0.000001 4.236801 6.323420 -1.794930 -0.845926 0.000006 0.000006 9.874403 -60.477944 -7.921955 -18.866383 0.000000 -0.000002 2.173899 -5.953272 0.081958 -7.807239 2.681590 -0.377591 5.432502 -12.642812 14.396183 -54.107826 5.161512 -0.000006 0.000017 -215.064393 -168.783181 -317.779988 -0.000003 -0.000010 -10.869094 76.831514 -17.866643 10.763037 0.000006 -0.000002 -13.344796 -47.308151 -9.761625 -33.503666 -2.381896 -1.419590 6.136599 6.434941 9.649028 -12.523668 -4.550496 -0.000000 0.000004 -1204.527575 -494.764369 -388.452830 0.000009 -0.000001 -11.106488 724.084582 2.298403 720.779317 0.000002 -0.000006 -12.874289 -367.181517 5.923451 -15.538204 2.431909 0.469607 -2.489399 16.622073 -19.440228 14.255811 0.000002 0.000002 -18.200207 -22.711098 41.234583 9.061638 -0.000004 -0.000001 -16.279900 -24.354832 36.433301 -10.619085 -1.987979 -0.073497 -2.713003 -75.274729 -32.993567 -38.062800 -0.000006 -0.000007 -19.547794 -1795.957917 53.918166 24.955944 -0.000023 0.000001 -14.881201 2229.207853 46.943542 -364.998698
82.693893 -22.310596 44.222702 4875.352310 11.510432 0.774313 -0.780008 1.005792 5.403094 -15.448706 -12.186311 -7.844859 -0.000003 0.000001 4.236795 9.808229 -0.956999 -0.622495 -0.000008 -0.000005 9.874401 -62.406038 -6.809702 -19.828575 0.000017 0.000004 2.173885 -6.096900 0.259171 -8.760005 2.681586 -0.377599 5.432499 -12.799967 16.525441 -55.401662 5.161509 -0.000004 -0.000001 -218.113635 -168.142510 -317.918805 0.000007 -0.000002 -10.869095 77.659046 -19.909831 14.983482 0.000005 -0.000008 -13.344797 -58.673757 -6.760203 -36.950634 -2.381903 -1.419603 6.136601 6.698632 10.195065 -12.786462 -4.550504 -0.000010 0.000006 -1209.444327 -493.380299 -391.841560 -0.000003 0.000004 -11.106503 725.590940 3.407636 720.743145 0.000001 -0.000001 -12.874289 -367.293395 7.317522 -18.979026 2.431901 0.469589 -2.489406 18.302814 -21.478848 15.284563 0.000006 -0.000004 -18.200199 -31.142627 45.258906 13.270730 -0.000008 0.000005 -16.279896 -22.700525 35.714567 -9.940793 -1.988006 -0.073507 -2.713005 -68.560797 -33.201235 -34.312394 -0.000004 -0.000001 -19.547802 -1800.597637 48.846234 24.679890 -0.000005 0.000001 -14.881198 2234.869807 46.903636 -366.703458
82.732597 -22.162395 44.221806 4880.787611 12.163571 0.819697 -0.779997 1.005811 5.403085 -21.203414 -13.299291 -8.288402 0.000004 -0.000001 4.236804 13.495682 -0.242285 -0.164086 0.000001 -0.000005 9.874401 -63.446590 -5.669773 -20.648488 0.000003 0.000007 2.173890 -6.138550 0.454690 -9.786212 2.681599 -0.377603 5.432508 -16.589930 18.177876 -55.826435 5.161505 -0.000002 0.000000 -221.073143 -168.442683 -316.307536 0.000018 0.000004 -10.869094 77.345513 -21.175337 20.907199 -0.000003 0.000000 -13.344796 -71.832799 -1.656846 -41.354203 -2.381895 -1.419605 6.136601 6.961049 10.651304 -14.510952 -4.550505 -0.000006 0.000011 -1214.159343 -493.443847 -394.804414 -0.000003 0.000005 -11.106502 727.262314 4.626520 720.482341 -0.000005 -0.000004 -12.874290 -367.705228 9.298107 -21.799636 2.431897 0.469613 -2.489400 19.909182 -23.704414 16.491075 0.000002 -0.000005 -18.200195 -43.227888 48.781802 20.533003 -0.000001 -0.000000 -16.279898 -19.577289 34.794964 -8.561530 -1.987999 -0.073488 -2.713005 -62.564683 -33.079129 -31.300172 -0.000007 0.000001 -19.547800 -1801.291803 45.733044 22.818252 -0.000011 -0.000003 -14.881195 2236.569377 45.900596 -367.861285
82.738602 -22.036800 44.199203 4885.305809 12.374697 0.834379 -0.779992 1.005807 5.403102 -25.931829 -13.541186 -8.722826 -0.000003 0.000003 4.236796 16.910261 0.229554 0.090858 0.000010 0.000000 9.874390 -63.355435 -5.494792 -20.608479 -0.000006 -0.000005 2.173896 -6.525146 0.882193 -9.558381 2.681603 -0.377596 5.432490 -15.710029 19.242912 -57.519243 5.161505 0.000000 0.000014 -229.074614 -162.725678 -318.254112 0.000002 0.000013 -10.869101 75.362012 -20.107725 28.133693 -0.000002 -0.000006 -13.344790 -84.189806 0.900239 -42.859604 -2.381887 -1.419599 6.136589 5.977988 10.625995 -14.997139 -4.550509 -0.000000 0.000004 -1218.261063 -494.257787 -398.287045 -0.000004 -0.000002 -11.106503 728.813641 5.478541 720.289074 0.000014 0.000003 -12.874294 -367.372598 10.804386 -24.905761 2.431906 0.469615 -2.489391 21.514292 -25.419775 17.262583 -0.000001 -0.000012 -18.200203 -53.795062 50.758735 28.200362 0.000007 -0.000003 -16.279896 -17.134786 34.707760 -6.898821 -1.988001 -0.073488 -2.712996 -59.685034 -32.734580 -29.359985 0.000003 0.000001 -19.547798 -1800.858605 44.616196 21.480161 0.000001 0.000000 -14.881195 2236.171368 45.806192 -367.473494
82.745110 -21.908400 44.141705 4889.919301 12.329620 0.596312 -0.779995 1.005805 5.403098 -30.654852 -13.434758 -8.829754 0.000024 -0.000000 4.236794 19.877922 0.571527 0.353099 -0.000011 -0.000012 9.874399 -61.927665 -5.720369 -20.541459 -0.000001 0.000012 2.173883 -7.208428 1.356670 -9.092288 2.681586 -0.377605 5.432499 -15.720401 19.675139 -58.709554 5.161502 0.000002 0.000003 -237.764950 -156.710658 -320.336637 -0.000005 -0.000000 -10.869100 75.733233 -14.461068 37.504576 0.000006 -0.000003 -13.344806 -100.639737 3.855105 -43.886902 -2.381899 -1.419602 6.136594 5.010173 10.374197 -15.280805 -4.550506 -0.000006 0.000008 -1223.006132 -496.373343 -402.693829 -0.000010 0.000007 -11.106500 729.788009 6.258380 720.118210 -0.000005 0.000000 -12.874305 -367.208236 12.396090 -28.265317 2.431891 0.469604 -2.489402 23.225589 -26.878739 18.005857 0.000002 -0.000003 -18.200203 -64.196695 51.622891 36.507108 -0.000009 0.000004 -16.279896 -14.838140 35.212388 -4.594157 -1.988003 -0.073491 -2.713003 -56.855891 -32.550335 -27.098477 -0.000013 0.000000 -19.547800 -1799.789598 44.141976 20.055990 0.000011 -0.000003 -14.881196 2233.199744 45.083801 -365.344988
